<svg width="14" height="25" viewBox="0 0 14 25" fill="none" xmlns="http://www.w3.org/2000/svg">
<path d="M12.6667 4.65503H8.66673C7.93033 4.65503 7.33339 5.25199 7.33339 5.98836V9.98836H12.6667C12.8183 9.985 12.9622 10.0556 13.0523 10.1776C13.1425 10.2996 13.1678 10.4577 13.1201 10.6017L12.1334 13.535C12.0425 13.8042 11.7909 13.9862 11.5067 13.9884H7.33339V23.9884C7.33339 24.3565 7.03486 24.655 6.66673 24.655H3.33339C2.96521 24.655 2.66673 24.3565 2.66673 23.9884V13.9884H0.666728C0.298541 13.9884 6.10352e-05 13.6898 6.10352e-05 13.3217V10.655C6.10352e-05 10.2869 0.298541 9.98836 0.666728 9.98836H2.66673V5.98836C2.66673 3.04284 5.05459 0.655029 8.00006 0.655029H12.6667C13.0349 0.655029 13.3334 0.953509 13.3334 1.3217V3.98836C13.3334 4.35655 13.0349 4.65503 12.6667 4.65503Z" fill="black"/>
</svg>
