<svg width="36" height="36" viewBox="0 0 36 36" fill="none" xmlns="http://www.w3.org/2000/svg">
<path d="M27.2252 15.828C26.7199 16.3364 26.333 16.95 26.0919 17.6249C25.8508 18.3 25.7616 19.0199 25.8306 19.7333L25.8066 19.7093C25.8775 20.5492 25.7642 21.3943 25.4747 22.1859C25.1852 22.9773 24.7266 23.6961 24.1307 24.2921C23.5347 24.888 22.8159 25.3468 22.0243 25.6361C21.2328 25.9256 20.3876 26.0389 19.5479 25.968L19.5719 25.992C18.5674 25.8985 17.5584 26.1171 16.6826 26.618C15.8068 27.1189 15.1068 27.8777 14.6782 28.7911C14.2495 29.7044 14.1128 30.7276 14.287 31.7215C14.4612 32.7152 14.9376 33.6311 15.6514 34.3441C16.3651 35.0572 17.2814 35.5328 18.2752 35.706C19.2692 35.8793 20.2923 35.7417 21.2052 35.3123C22.1182 34.8827 22.8763 34.1821 23.3764 33.3059C23.8766 32.4296 24.0943 31.4205 23.9999 30.416L24.0252 30.44C23.9543 29.6003 24.0675 28.7551 24.357 27.9635C24.6464 27.172 25.1052 26.4532 25.7011 25.8572C26.2971 25.2613 27.0159 24.8025 27.8074 24.5132C28.599 24.2237 29.444 24.1104 30.2839 24.1813L30.2586 24.1573C31.0791 24.2311 31.9051 24.0965 32.6599 23.7661C33.4146 23.4357 34.0738 22.9201 34.5762 22.2672C35.0786 21.6143 35.4082 20.8449 35.534 20.0308C35.66 19.2165 35.5784 18.3837 35.2968 17.6093C35.0152 16.8351 34.5427 16.1444 33.9231 15.6013C33.3035 15.0583 32.5568 14.6804 31.7523 14.5028C30.9478 14.3252 30.1114 14.3535 29.3207 14.5851C28.53 14.8168 27.8107 15.2443 27.2292 15.828H27.2252Z" fill="#394149"/>
<path d="M17.3894 22.8481L17.364 22.8241C18.0778 22.8959 18.7986 22.8083 19.4744 22.5675C20.1502 22.3267 20.764 21.9389 21.2715 21.4318C21.7788 20.9247 22.1674 20.3111 22.4086 19.6355C22.6499 18.9599 22.738 18.2393 22.6667 17.5254L22.692 17.5494C22.6211 16.7095 22.7344 15.8645 23.0238 15.0729C23.3132 14.2814 23.772 13.5626 24.3679 12.9666C24.9639 12.3707 25.6827 11.9119 26.4742 11.6226C27.2658 11.3331 28.1108 11.2199 28.9507 11.2907L28.9254 11.2667C29.93 11.3611 30.9392 11.1432 31.8155 10.6429C32.6919 10.1425 33.3924 9.38404 33.8218 8.47088C34.2511 7.55773 34.3883 6.53436 34.2147 5.54034C34.0411 4.54633 33.5651 3.63009 32.8515 2.91657C32.138 2.20306 31.2218 1.72701 30.2278 1.55338C29.2338 1.37974 28.2104 1.51696 27.2972 1.94632C26.384 2.37566 25.6256 3.07626 25.1252 3.95254C24.6248 4.82881 24.407 5.8381 24.5014 6.84274L24.4774 6.81741C24.5484 7.65726 24.4354 8.50252 24.146 9.29414C23.8567 10.0858 23.3979 10.8047 22.802 11.4007C22.206 11.9966 21.4871 12.4554 20.6955 12.7447C19.9038 13.0341 19.0586 13.1471 18.2187 13.0761L18.2427 13.1014C17.529 13.0295 16.808 13.1171 16.1323 13.3579C15.4566 13.5986 14.8427 13.9866 14.3352 14.4937C13.8278 15.0007 13.4394 15.6143 13.198 16.2899C12.9568 16.9655 12.8687 17.6862 12.94 18.4001L12.916 18.3761C12.9867 19.2158 12.8732 20.0609 12.5838 20.8523C12.2942 21.6437 11.8355 22.3625 11.2396 22.9583C10.6437 23.5542 9.925 24.0129 9.13359 24.3025C8.34218 24.5919 7.49712 24.7054 6.65738 24.6347L6.68138 24.6587C5.67674 24.5643 4.66744 24.7822 3.79116 25.2826C2.9149 25.783 2.2143 26.5414 1.78495 27.4546C1.35559 28.3678 1.21836 29.3911 1.392 30.3851C1.56564 31.3791 2.0417 32.2954 2.7552 33.0089C3.46872 33.7225 4.38496 34.1985 5.37898 34.3721C6.37299 34.5457 7.39636 34.4085 8.30952 33.9791C9.22267 33.5498 9.98116 32.8493 10.4815 31.973C10.9819 31.0966 11.1998 30.0874 11.1054 29.0827L11.1307 29.1067C11.0598 28.2669 11.1731 27.4218 11.4626 26.6302C11.7519 25.8387 12.2107 25.1199 12.8066 24.5239C13.4026 23.9281 14.1214 23.4693 14.9128 23.1799C15.7044 22.8905 16.5495 22.7771 17.3894 22.8481Z" fill="#006B6A"/>
<path d="M8.45313 20.1718C8.95849 19.6636 9.34539 19.05 9.58625 18.3749C9.8271 17.6998 9.91595 16.9798 9.84646 16.2665L9.87178 16.2905C9.80085 15.4505 9.91413 14.605 10.2037 13.8133C10.4934 13.0216 10.9523 12.3026 11.5486 11.7066C12.1449 11.1107 12.8639 10.652 13.6558 10.3627C14.4477 10.0735 15.2931 9.96053 16.1331 10.0318L16.1078 10.0078C17.1121 10.1019 18.121 9.88394 18.9969 9.38362C19.8727 8.88332 20.5729 8.12501 21.0021 7.21215C21.4311 6.29927 21.5682 5.27626 21.3946 4.28262C21.221 3.28898 20.745 2.37309 20.0318 1.65984C19.3186 0.946584 18.4026 0.470691 17.409 0.297064C16.4154 0.123424 15.3923 0.260518 14.4795 0.689611C13.5666 1.1187 12.8083 1.81893 12.3081 2.6948C11.8077 3.57066 11.5897 4.57954 11.6838 5.58384L11.6598 5.55984C11.7307 6.39964 11.6174 7.2448 11.3279 8.03632C11.0385 8.82784 10.5798 9.54665 9.98387 10.1426C9.38794 10.7385 8.66911 11.1973 7.87759 11.4866C7.08607 11.7761 6.24093 11.8894 5.40113 11.8185L5.42513 11.8425C4.60455 11.7689 3.77867 11.9037 3.02403 12.2342C2.26939 12.5648 1.61039 13.0805 1.10811 13.7336C0.605834 14.3865 0.276527 15.1558 0.150687 15.97C0.0248603 16.7842 0.10658 17.617 0.388274 18.3912C0.669967 19.1654 1.14254 19.856 1.76218 20.3989C2.38182 20.942 3.12849 21.3197 3.93299 21.4973C4.73749 21.6748 5.57379 21.6464 6.36442 21.4148C7.15503 21.183 7.87437 20.7556 8.45578 20.1718H8.45313Z" fill="#394149"/>
</svg>
