<svg width="25" height="25" viewBox="0 0 25 25" fill="none" xmlns="http://www.w3.org/2000/svg">
<path fill-rule="evenodd" clip-rule="evenodd" d="M18.0001 0.655029H7.33338C3.65149 0.655029 0.666718 3.6398 0.666718 7.3217V17.9884C0.666718 21.6702 3.65149 24.655 7.33338 24.655H18.0001C21.6819 24.655 24.6667 21.6702 24.6667 17.9884V7.3217C24.6667 3.6398 21.6819 0.655029 18.0001 0.655029ZM22.3334 17.9884C22.3261 20.3785 20.3902 22.3144 18.0001 22.3217H7.33338C4.94318 22.3144 3.00737 20.3785 3.00005 17.9884V7.3217C3.00737 4.9315 4.94318 2.99568 7.33338 2.98836H18.0001C20.3902 2.99568 22.3261 4.9315 22.3334 7.3217V17.9884ZM19.0001 7.65503C19.7365 7.65503 20.3334 7.05807 20.3334 6.3217C20.3334 5.58532 19.7365 4.98836 19.0001 4.98836C18.2637 4.98836 17.6667 5.58532 17.6667 6.3217C17.6667 7.05807 18.2637 7.65503 19.0001 7.65503ZM12.6667 6.65503C9.35301 6.65503 6.66672 9.34132 6.66672 12.655C6.66672 15.9688 9.35301 18.655 12.6667 18.655C15.9805 18.655 18.6667 15.9688 18.6667 12.655C18.6703 11.0626 18.0393 9.53446 16.9133 8.40847C15.7873 7.28248 14.2591 6.65148 12.6667 6.65503ZM9.00005 12.655C9.00005 14.6801 10.6417 16.3217 12.6667 16.3217C14.6918 16.3217 16.3334 14.6801 16.3334 12.655C16.3334 10.63 14.6918 8.98836 12.6667 8.98836C10.6417 8.98836 9.00005 10.63 9.00005 12.655Z" fill="black"/>
</svg>
