<svg width="25" height="25" viewBox="0 0 25 25" fill="none" xmlns="http://www.w3.org/2000/svg">
<path fill-rule="evenodd" clip-rule="evenodd" d="M3.33338 0.655029H22.0001C23.4729 0.655029 24.6667 1.84894 24.6667 3.3217V21.9884C24.6667 23.4612 23.4729 24.655 22.0001 24.655H3.33338C1.86062 24.655 0.666718 23.4612 0.666718 21.9884V3.3217C0.666718 1.84894 1.86062 0.655029 3.33338 0.655029ZM7.33338 20.655C7.70157 20.655 8.00005 20.3565 8.00005 19.9884V10.655C8.00005 10.2869 7.70157 9.98836 7.33338 9.98836H5.33338C4.9652 9.98836 4.66672 10.2869 4.66672 10.655V19.9884C4.66672 20.3565 4.9652 20.655 5.33338 20.655H7.33338ZM6.33338 8.65503C5.22881 8.65503 4.33338 7.7596 4.33338 6.65503C4.33338 5.55046 5.22881 4.65503 6.33338 4.65503C7.43796 4.65503 8.33338 5.55046 8.33338 6.65503C8.33338 7.7596 7.43796 8.65503 6.33338 8.65503ZM20.0001 20.655C20.3682 20.655 20.6667 20.3565 20.6667 19.9884V13.855C20.7101 11.7361 19.1435 9.92772 17.0401 9.66836C15.5694 9.53403 14.1445 10.2209 13.3334 11.455V10.655C13.3334 10.2869 13.0349 9.98836 12.6667 9.98836H10.6667C10.2986 9.98836 10.0001 10.2869 10.0001 10.655V19.9884C10.0001 20.3565 10.2986 20.655 10.6667 20.655H12.6667C13.0349 20.655 13.3334 20.3565 13.3334 19.9884V14.9884C13.3334 13.8838 14.2289 12.9884 15.3334 12.9884C16.4379 12.9884 17.3334 13.8838 17.3334 14.9884V19.9884C17.3334 20.3565 17.6319 20.655 18.0001 20.655H20.0001Z" fill="black"/>
</svg>
