<svg width="27" height="26" viewBox="0 0 27 26" fill="none" xmlns="http://www.w3.org/2000/svg">
<path d="M12.094 0.952688C12.5523 -0.135923 14.1133 -0.135922 14.5717 0.952691L17.2767 7.37788C17.47 7.83681 17.9069 8.15038 18.4084 8.1901L25.4297 8.7462C26.6194 8.84042 27.1017 10.3071 26.1954 11.0741L20.8459 15.6011C20.4638 15.9245 20.2968 16.4319 20.4136 16.9153L22.048 23.6842C22.3248 24.831 21.062 25.7376 20.0435 25.123L14.0322 21.4956C13.6028 21.2365 13.0628 21.2365 12.6335 21.4956L6.62216 25.123C5.60366 25.7376 4.34079 24.831 4.61769 23.6842L6.25207 16.9153C6.36882 16.4319 6.20194 15.9245 5.81985 15.6011L0.470261 11.0741C-0.436112 10.3071 0.0462689 8.84042 1.2359 8.7462L8.25732 8.1901C8.75884 8.15038 9.19572 7.83681 9.38893 7.37788L12.094 0.952688Z" fill="#006B6A"/>
</svg>
