<svg width="25" height="22" viewBox="0 0 25 22" fill="none" xmlns="http://www.w3.org/2000/svg">
<path d="M24.6304 3.61157C24.0112 4.43759 23.2627 5.15814 22.4138 5.74538C22.4138 5.96115 22.4138 6.17693 22.4138 6.4047C22.4206 10.3232 20.8554 14.0805 18.0691 16.8344C15.2827 19.5882 11.5083 21.1082 7.59211 21.0536C5.32803 21.0612 3.09294 20.5442 1.06194 19.5432C0.952422 19.4953 0.881795 19.387 0.882208 19.2674V19.1356C0.882208 18.9634 1.02169 18.824 1.19374 18.824C3.41928 18.7505 5.56541 17.9789 7.3285 16.6182C5.31409 16.5776 3.50164 15.3842 2.66752 13.5493C2.6254 13.4492 2.6385 13.3341 2.70214 13.246C2.76577 13.1578 2.87072 13.1093 2.97905 13.1178C3.59128 13.1793 4.20962 13.1224 4.80032 12.95C2.57657 12.4884 0.905662 10.6422 0.666529 8.38263C0.658035 8.27423 0.706608 8.1693 0.794715 8.10557C0.882808 8.04197 0.997702 8.02877 1.09789 8.07103C1.69464 8.33437 2.33884 8.47303 2.99104 8.4785C1.0425 7.19965 0.200862 4.7671 0.942115 2.55666C1.01863 2.34187 1.20246 2.18319 1.42605 2.13895C1.64962 2.0947 1.88 2.17141 2.03248 2.34089C4.6619 5.13937 8.27477 6.80698 12.1092 6.99209C12.0111 6.60017 11.9628 6.19738 11.9655 5.79332C12.0014 3.67466 13.3123 1.78731 15.2846 1.01486C17.2567 0.242418 19.4999 0.737739 20.964 2.26895C21.9619 2.07883 22.9267 1.74363 23.8277 1.27398C23.8937 1.23278 23.9774 1.23278 24.0434 1.27398C24.0846 1.34001 24.0846 1.42373 24.0434 1.48975C23.607 2.48906 22.8698 3.32719 21.9346 3.88729C22.7535 3.79231 23.558 3.59913 24.331 3.31189C24.396 3.26759 24.4815 3.26759 24.5466 3.31189C24.6011 3.33682 24.6419 3.38451 24.658 3.44226C24.6742 3.5 24.664 3.56194 24.6304 3.61157Z" fill="black"/>
</svg>
