<svg width="33" height="33" viewBox="0 0 33 33" fill="none" xmlns="http://www.w3.org/2000/svg">
<path fill-rule="evenodd" clip-rule="evenodd" d="M16.3335 0.166748C7.5005 0.166748 0.333466 7.33378 0.333466 16.1667C0.333466 24.9997 7.5005 32.1667 16.3335 32.1667C25.1491 32.1667 32.3335 24.9997 32.3335 16.1667C32.3335 7.33378 25.1491 0.166748 16.3335 0.166748ZM26.9018 7.54202C28.8107 9.8674 29.9561 12.8348 29.9908 16.0452C29.5396 15.9585 25.0276 15.0387 20.481 15.6114C20.3769 15.3858 20.2901 15.1428 20.186 14.8999C19.9083 14.2405 19.596 13.5637 19.2836 12.9216C24.3161 10.8739 26.6068 7.9238 26.9018 7.54202ZM16.3335 2.52684C19.8042 2.52684 22.9799 3.82836 25.3921 5.96285C25.1491 6.30992 23.084 9.06914 18.225 10.8912C15.9864 6.77846 13.5049 3.41187 13.1231 2.89126C14.1469 2.64831 15.2229 2.52684 16.3335 2.52684ZM10.5201 3.811C10.8845 4.2969 13.314 7.68085 15.5873 11.7068C9.20115 13.4075 3.56124 13.3728 2.95386 13.3728C3.83889 9.13855 6.70223 5.61577 10.5201 3.811ZM2.65885 16.1841C2.65885 16.0452 2.65885 15.9064 2.65885 15.7676C3.24887 15.7849 9.87794 15.8717 16.6979 13.824C17.0971 14.5875 17.4615 15.3684 17.8086 16.1493C17.635 16.2014 17.4441 16.2535 17.2706 16.3055C10.225 18.5788 6.47664 24.7914 6.16427 25.312C3.99507 22.8999 2.65885 19.6895 2.65885 16.1841ZM16.3335 29.8413C13.1751 29.8413 10.2597 28.7654 7.95169 26.9606C8.19464 26.4574 10.9712 21.1125 18.6762 18.4227C18.7109 18.4053 18.7283 18.4053 18.763 18.388C20.6892 23.3684 21.4702 27.5506 21.6784 28.748C20.0298 29.4595 18.225 29.8413 16.3335 29.8413ZM23.9517 27.4986C23.8129 26.6656 23.084 22.6743 21.2966 17.7632C25.583 17.0864 29.3313 18.1971 29.7999 18.3533C29.2099 22.1537 27.0233 25.4335 23.9517 27.4986Z" fill="white"/>
</svg>
